SplineFontDB: 3.2
FontName: EdgeTX_extra
FullName: EdgeTX_extra
FamilyName: EdgeTX_extra
Weight: Regular
Copyright: Copyright (c) 2022, gagarin , mhotar
UComments: "2022-2-5: Created with FontForge (http://fontforge.org)"
Version: 002.000
DefaultBaseFilename: extra
ItalicAngle: 0
UnderlinePosition: -7
UnderlineWidth: 0
Ascent: 422
Descent: 90
InvalidEm: 0
LayerCount: 2
Layer: 0 0 "Hinten" 1
Layer: 1 0 "Vorne" 0
XUID: [1021 779 755253580 15286]
StyleMap: 0x0000
FSType: 0
OS2Version: 0
OS2_WeightWidthSlopeOnly: 0
OS2_UseTypoMetrics: 1
CreationTime: 1644084515
ModificationTime: 1750203232
PfmFamily: 17
TTFWeight: 200
TTFWidth: 5
LineGap: 12
VLineGap: 0
OS2TypoAscent: 0
OS2TypoAOffset: 1
OS2TypoDescent: 0
OS2TypoDOffset: 1
OS2TypoLinegap: 12
OS2WinAscent: 0
OS2WinAOffset: 1
OS2WinDescent: 0
OS2WinDOffset: 1
HheadAscent: 0
HheadAOffset: 1
HheadDescent: 0
HheadDOffset: 1
OS2Vendor: 'PfEd'
MarkAttachClasses: 1
DEI: 91125
LangName: 1033
Encoding: ISO8859-1
UnicodeInterp: none
NameList: AGL For New Fonts
DisplaySize: -48
AntiAlias: 1
FitToEm: 0
WinInfo: 0 25 13
BeginPrivate: 0
EndPrivate
TeXData: 1 0 0 86508 43254 28836 0 262144 28836 783286 444596 497025 792723 393216 433062 380633 303038 157286 324010 404750 52429 2506097 1059062 262144
BeginChars: 256 26

StartChar: uni0080
Encoding: 128 128 2
Width: 512
Flags: HW
LayerCount: 2
Fore
SplineSet
304.875 304.299804688 m 4
 310.625 304.299804688 315.224609375 302 318.674804688 298.549804688 c 6
 407.224609375 210 l 5
 318.674804688 121.450195312 l 6
 315.224609375 118 311.775390625 115.700195312 306.025390625 115.700195312 c 4
 301.424804688 115.700195312 295.674804688 118 292.224609375 121.450195312 c 132
 288.775390625 124.900390625 287.625 129.5 287.625 134.099609375 c 4
 287.625 139.849609375 288.775390625 144.450195312 292.224609375 147.900390625 c 6
 335.924804688 191.599609375 l 5
 123.174804688 191.599609375 l 6
 123.174804688 191.599609375 l 4
 118.575195312 191.599609375 113.974609375 192.75 110.525390625 196.200195312 c 132
 107.075195312 199.650390625 104.775390625 205.400390625 104.775390625 210 c 132
 104.775390625 214.599609375 107.075195312 219.200195312 110.525390625 222.650390625 c 132
 113.974609375 226.099609375 117.885742188 228.400390625 123.174804688 228.400390625 c 4
 123.174804688 228.400390625 l 6
 335.924804688 228.400390625 l 5
 292.224609375 272.099609375 l 6
 288.775390625 275.549804688 286.474609375 280.150390625 286.474609375 285.900390625 c 4
 286.474609375 290.5 288.775390625 295.099609375 292.224609375 298.549804688 c 132
 295.674804688 302 300.275390625 304.299804688 304.875 304.299804688 c 4
EndSplineSet
Validated: 524293
EndChar

StartChar: uni0081
Encoding: 129 129 3
Width: 566
Flags: HW
LayerCount: 2
Fore
SplineSet
232.400390625 310.700195312 m 4
 232.400390625 310.700195312 l 4
 237 310.700195312 242.75 308.400390625 246.200195312 304.950195312 c 132
 249.650390625 301.5 251.950195312 296.900390625 251.950195312 292.30078125 c 4
 251.950195312 287.700195312 250.799804688 281.950195312 246.200195312 278.5 c 6
 202.5 234.80078125 l 5
 415.25 234.80078125 l 6
 415.25 234.80078125 l 4
 419.849609375 234.80078125 425.599609375 232.5 429.049804688 229.05078125 c 132
 432.5 225.600585938 434.799804688 221 434.799804688 216.400390625 c 132
 434.799804688 211.80078125 432.5 206.05078125 429.049804688 202.600585938 c 132
 425.599609375 199.150390625 419.849609375 198 415.25 198 c 4
 415.25 198 l 6
 202.5 198 l 5
 246.200195312 154.30078125 l 6
 249.650390625 150.850585938 251.950195312 146.25 251.950195312 140.5 c 4
 251.950195312 135.900390625 249.650390625 130.150390625 246.200195312 126.700195312 c 132
 242.75 123.25 238.150390625 122.100585938 233.549804688 122.100585938 c 4
 227.799804688 122.100585938 223.200195312 124.400390625 219.75 127.850585938 c 6
 131.200195312 216.400390625 l 5
 219.75 304.950195312 l 6
 223.200195312 308.400390625 227.799804688 310.700195312 232.400390625 310.700195312 c 4
EndSplineSet
Validated: 524293
EndChar

StartChar: uni0082
Encoding: 130 130 4
Width: 512
Flags: HW
LayerCount: 2
Fore
SplineSet
257 388 m 5
 334 311 l 6
 338 308 338 304 338 299 c 4
 338 295 337 291 334 288 c 132
 331 285 326 283 322 283 c 4
 318 283 313 285 310 288 c 6
 272 326 l 5
 272 36 l 6
 272 36 l 4
 272 32 271 28 268 25 c 132
 265 22 260 20 256 20 c 132
 252 20 248 22 245 25 c 132
 242 28 240 32 240 36 c 4
 240 36 l 6
 240 325 l 5
 202 287 l 6
 199 284 195 283 191 283 c 4
 187 283 182 284 179 287 c 132
 176 290 174 295 174 299 c 4
 174 303 177 308 180 311 c 6
 257 388 l 5
EndSplineSet
Validated: 5
EndChar

StartChar: uni0083
Encoding: 131 131 5
Width: 512
Flags: HW
LayerCount: 2
Fore
SplineSet
256 394 m 4
 256 394 l 4
 260 394 265 393 268 390 c 132
 271 387 273 382 273 378 c 4
 273 378 l 6
 273 89 l 5
 310 126 l 6
 313 129 318 131 322 131 c 4
 322 131 l 4
 326 131 331 129 334 126 c 132
 337 123 338 119 338 115 c 4
 338 111 337 106 334 103 c 6
 256 26 l 5
 179 103 l 6
 176 106 174 110 174 114 c 4
 174 118 176 123 179 126 c 132
 182 129 187 131 191 131 c 4
 195 131 199 129 202 126 c 6
 240 88 l 5
 240 378 l 6
 240 378 l 4
 240 382 242 387 245 390 c 132
 248 393 252 394 256 394 c 4
EndSplineSet
Validated: 5
EndChar

StartChar: uni0084
Encoding: 132 132 6
Width: 512
Flags: HW
LayerCount: 2
Fore
SplineSet
283.025390625 366 m 6
 408.375 366 l 5
 408.375 240.650390625 l 6
 408.375 240.650390625 l 4
 408.375 236.049804688 406.075195312 230.299804688 402.625 226.849609375 c 132
 399.174804688 223.400390625 394.575195312 222.25 389.974609375 222.25 c 132
 385.375 222.25 380.775390625 223.400390625 377.325195312 226.849609375 c 132
 373.875 230.299804688 371.575195312 236.049804688 371.575195312 240.650390625 c 4
 371.575195312 240.650390625 l 6
 371.575195312 302.75 l 5
 135.825195312 67 l 6
 132.375 62.400390625 127.775390625 61.25 122.025390625 61.25 c 4
 117.424804688 61.25 111.674804688 63.5498046875 108.224609375 67 c 132
 104.775390625 70.4501953125 103.625 75.0498046875 103.625 79.650390625 c 4
 103.625 84.25 105.924804688 90 109.375 93.4501953125 c 6
 343.974609375 328.049804688 l 5
 283.025390625 328.049804688 l 6
 283.025390625 328.049804688 l 4
 278.424804688 328.049804688 272.674804688 330.349609375 269.224609375 333.799804688 c 132
 265.775390625 337.25 264.625 341.849609375 264.625 346.450195312 c 132
 264.625 351.049804688 265.775390625 356.799804688 269.224609375 360.25 c 132
 272.674804688 363.700195312 278.424804688 366 283.025390625 366 c 4
 283.025390625 366 l 6
EndSplineSet
Validated: 524293
EndChar

StartChar: uni0085
Encoding: 133 133 7
Width: 512
Flags: HW
LayerCount: 2
Fore
SplineSet
283.025390625 59 m 6
 283.025390625 59 l 4
 278.424804688 59 272.674804688 61.2998046875 269.224609375 64.75 c 132
 265.775390625 68.2001953125 264.625 72.7998046875 264.625 77.400390625 c 132
 264.625 82 265.775390625 87.75 269.224609375 91.2001953125 c 132
 272.674804688 94.650390625 278.424804688 95.7998046875 283.025390625 95.7998046875 c 4
 283.025390625 95.7998046875 l 6
 343.974609375 95.7998046875 l 5
 109.375 331.549804688 l 6
 105.924804688 335 103.625 339.599609375 103.625 344.200195312 c 4
 103.625 348.799804688 104.775390625 354.549804688 108.224609375 358 c 132
 111.674804688 361.450195312 117.424804688 363.75 122.025390625 363.75 c 4
 127.775390625 363.75 132.375 361.450195312 135.825195312 358 c 6
 371.575195312 122.25 l 5
 371.575195312 184.349609375 l 6
 371.575195312 184.349609375 l 4
 371.575195312 188.950195312 373.875 193.549804688 377.325195312 197 c 132
 380.775390625 200.450195312 385.375 202.75 389.974609375 202.75 c 132
 394.575195312 202.75 399.174804688 200.450195312 402.625 197 c 132
 406.075195312 193.549804688 408.375 188.950195312 408.375 184.349609375 c 4
 408.375 184.349609375 l 6
 408.375 59 l 5
 283.025390625 59 l 6
EndSplineSet
Validated: 524293
EndChar

StartChar: uni0086
Encoding: 134 134 8
Width: 512
Flags: HW
LayerCount: 2
Fore
SplineSet
228.974609375 59.75 m 6
 103.625 59.75 l 5
 103.625 185.099609375 l 6
 103.625 185.099609375 l 4
 103.625 189.700195312 104.775390625 194.299804688 108.224609375 197.75 c 132
 111.674804688 201.200195312 117.424804688 203.5 122.025390625 203.5 c 132
 126.625 203.5 132.375 201.200195312 135.825195312 197.75 c 132
 139.275390625 194.299804688 140.424804688 189.700195312 140.424804688 185.099609375 c 4
 140.424804688 185.099609375 l 6
 140.424804688 123 l 5
 376.174804688 358.75 l 6
 379.625 362.200195312 384.224609375 364.5 389.974609375 364.5 c 4
 394.575195312 364.5 399.174804688 362.200195312 402.625 358.75 c 132
 406.075195312 355.299804688 408.375 349.549804688 408.375 344.950195312 c 4
 408.375 340.349609375 406.075195312 335.75 402.625 332.299804688 c 6
 168.025390625 96.5498046875 l 5
 228.974609375 96.5498046875 l 6
 228.974609375 96.5498046875 l 4
 233.575195312 96.5498046875 239.325195312 95.400390625 242.775390625 91.9501953125 c 132
 246.224609375 88.5 248.525390625 82.75 248.525390625 78.150390625 c 132
 248.525390625 73.5498046875 246.224609375 68.9501953125 242.775390625 65.5 c 132
 239.325195312 62.0498046875 233.575195312 59.75 228.974609375 59.75 c 4
 228.974609375 59.75 l 6
EndSplineSet
Validated: 524293
EndChar

StartChar: uni0087
Encoding: 135 135 9
Width: 550
Flags: HW
LayerCount: 2
Fore
SplineSet
247.974609375 355 m 6
 247.974609375 355 l 4
 252.575195312 355 258.325195312 352.700195312 261.775390625 349.25 c 132
 265.224609375 345.799804688 267.525390625 340.049804688 267.525390625 335.450195312 c 132
 267.525390625 330.849609375 265.224609375 326.25 261.775390625 322.799804688 c 132
 258.325195312 319.349609375 252.575195312 317.049804688 247.974609375 317.049804688 c 4
 247.974609375 317.049804688 l 6
 187.025390625 317.049804688 l 5
 421.625 82.4501953125 l 6
 425.075195312 79 427.375 73.25 427.375 68.650390625 c 4
 427.375 64.0498046875 425.075195312 59.4501953125 421.625 56 c 132
 418.174804688 52.5498046875 413.575195312 50.25 408.974609375 50.25 c 4
 403.224609375 50.25 398.625 51.400390625 395.174804688 56 c 6
 159.424804688 291.75 l 5
 159.424804688 229.650390625 l 6
 159.424804688 229.650390625 l 4
 159.424804688 225.049804688 158.275390625 219.299804688 154.825195312 215.849609375 c 132
 151.375 212.400390625 145.625 211.25 141.025390625 211.25 c 132
 136.424804688 211.25 130.674804688 212.400390625 127.224609375 215.849609375 c 132
 123.775390625 219.299804688 122.625 225.049804688 122.625 229.650390625 c 4
 122.625 229.650390625 l 6
 122.625 355 l 5
 247.974609375 355 l 6
EndSplineSet
Validated: 524293
EndChar

StartChar: uni0088
Encoding: 136 136 10
Width: 512
Flags: HW
LayerCount: 2
Fore
SplineSet
256 283.93359375 m 5
 136.2734375 58.9580078125 l 5
 375.7265625 58.9580078125 l 5
 256 283.93359375 l 5
44.7177734375 0 m 5
 256 400.299804688 l 5
 467.282226562 0 l 5
 44.7177734375 0 l 5
EndSplineSet
Validated: 524289
EndChar

StartChar: uni008A
Encoding: 138 138 11
Width: 512
Flags: HW
LayerCount: 2
Fore
SplineSet
369.154296875 297.458007812 m 6
 342.267578125 320.985351562 l 6
 341.145507812 322.104492188 340.026367188 324.345703125 340.026367188 326.5859375 c 132
 340.026367188 328.827148438 341.145507812 331.068359375 342.267578125 332.188476562 c 6
 375.876953125 369.16015625 l 6
 376.998046875 370.280273438 378.118164062 371.400390625 380.359375 371.400390625 c 132
 382.599609375 371.400390625 383.719726562 370.280273438 385.959960938 369.16015625 c 6
 411.728515625 345.6328125 l 6
 413.96875 344.51171875 415.08984375 342.271484375 415.08984375 340.030273438 c 132
 415.08984375 337.790039062 413.96875 337.790039062 412.849609375 335.548828125 c 6
 380.359375 298.577148438 l 6
 379.23828125 296.336914062 376.998046875 295.216796875 374.756835938 295.216796875 c 132
 372.516601562 295.216796875 370.276367188 296.336914062 369.154296875 297.458007812 c 6
397.163085938 250.403320312 m 6
 380.359375 281.772460938 l 6
 379.23828125 284.013671875 379.23828125 286.254882812 380.359375 288.494140625 c 132
 380.359375 290.735351562 382.599609375 290.735351562 384.840820312 291.856445312 c 6
 428.534179688 315.3828125 l 6
 430.774414062 316.502929688 431.89453125 316.502929688 434.135742188 315.3828125 c 132
 436.375976562 315.3828125 437.497070312 313.142578125 438.6171875 310.901367188 c 6
 454.302734375 279.53125 l 6
 455.421875 277.290039062 455.421875 276.170898438 455.421875 273.9296875 c 132
 454.302734375 271.689453125 453.180664062 271.689453125 450.94140625 270.568359375 c 6
 407.247070312 247.041992188 l 6
 405.006835938 245.920898438 403.885742188 245.920898438 401.645507812 247.041992188 c 132
 399.404296875 247.041992188 398.28515625 248.162109375 397.163085938 250.403320312 c 6
406.126953125 196.625976562 m 6
 402.765625 232.4765625 l 6
 402.765625 234.717773438 402.765625 234.717773438 403.885742188 236.958984375 c 132
 405.006835938 238.078125 407.247070312 240.319335938 409.48828125 240.319335938 c 6
 458.783203125 245.920898438 l 6
 461.024414062 245.920898438 462.14453125 244.80078125 464.384765625 243.680664062 c 132
 466.625 242.559570312 466.625 241.440429688 466.625 239.19921875 c 6
 469.986328125 203.34765625 l 6
 469.986328125 201.107421875 469.986328125 199.987304688 468.866210938 197.747070312 c 132
 467.74609375 195.505859375 465.505859375 195.505859375 463.264648438 195.505859375 c 6
 413.96875 189.903320312 l 6
 411.728515625 189.903320312 411.728515625 191.024414062 409.48828125 192.14453125 c 132
 407.247070312 193.264648438 406.126953125 194.385742188 406.126953125 196.625976562 c 6
396.043945312 142.848632812 m 6
 405.006835938 177.580078125 l 6
 405.006835938 179.821289062 406.126953125 180.94140625 408.368164062 182.060546875 c 132
 410.608398438 183.181640625 411.728515625 183.181640625 413.96875 183.181640625 c 6
 462.14453125 169.73828125 l 6
 464.384765625 169.73828125 465.505859375 168.6171875 466.625 166.376953125 c 132
 467.74609375 164.135742188 467.74609375 163.016601562 467.74609375 160.774414062 c 6
 457.663085938 127.1640625 l 6
 457.663085938 124.923828125 456.54296875 122.682617188 454.302734375 121.5625 c 132
 452.061523438 120.44140625 450.94140625 121.5625 448.700195312 121.5625 c 6
 400.525390625 133.885742188 l 6
 398.28515625 133.885742188 397.163085938 135.0078125 396.043945312 137.247070312 c 132
 394.923828125 139.48828125 396.043945312 140.608398438 396.043945312 142.848632812 c 6
366.915039062 96.9150390625 m 6
 387.081054688 124.923828125 l 6
 388.201171875 127.1640625 389.322265625 128.284179688 391.5625 128.284179688 c 132
 393.802734375 128.284179688 396.043945312 128.284179688 398.28515625 127.1640625 c 6
 437.497070312 98.0341796875 l 6
 439.737304688 96.9150390625 440.858398438 95.7939453125 440.858398438 93.5537109375 c 132
 440.858398438 91.3125 440.858398438 89.072265625 439.737304688 86.8310546875 c 6
 418.450195312 58.822265625 l 6
 417.331054688 56.58203125 416.209960938 55.4619140625 413.96875 55.4619140625 c 132
 411.728515625 55.4619140625 410.608398438 56.58203125 408.368164062 57.703125 c 6
 368.03515625 86.8310546875 l 6
 365.793945312 87.9521484375 364.673828125 89.072265625 364.673828125 91.3125 c 132
 364.673828125 93.5537109375 365.793945312 94.673828125 366.915039062 96.9150390625 c 6
322.1015625 64.423828125 m 6
 352.350585938 83.470703125 l 6
 354.590820312 84.5908203125 355.7109375 84.5908203125 357.951171875 84.5908203125 c 132
 360.192382812 84.5908203125 361.313476562 83.470703125 362.432617188 81.2294921875 c 6
 389.322265625 39.77734375 l 6
 390.44140625 37.5361328125 390.44140625 36.4150390625 390.44140625 34.17578125 c 132
 390.44140625 31.9345703125 389.322265625 30.8134765625 387.081054688 29.6943359375 c 6
 357.951171875 10.6474609375 l 6
 355.7109375 9.52734375 354.590820312 8.40625 352.350585938 8.40625 c 132
 350.110351562 8.40625 347.869140625 10.6474609375 346.748046875 12.888671875 c 6
 319.860351562 54.341796875 l 6
 318.739257812 56.58203125 319.860351562 57.703125 319.860351562 59.943359375 c 132
 319.860351562 62.1845703125 319.860351562 63.3037109375 322.1015625 64.423828125 c 6
270.564453125 49.859375 m 6
 304.174804688 56.58203125 l 6
 306.415039062 56.58203125 307.536132812 56.58203125 309.776367188 55.4619140625 c 132
 312.017578125 54.341796875 313.13671875 53.220703125 313.13671875 50.9814453125 c 6
 324.341796875 2.8046875 l 6
 324.341796875 0.564453125 323.220703125 -0.5556640625 322.1015625 -2.796875 c 132
 320.98046875 -5.0361328125 319.860351562 -6.158203125 317.620117188 -6.158203125 c 6
 284.008789062 -14 l 6
 281.767578125 -14 279.52734375 -14 277.287109375 -12.8798828125 c 132
 275.045898438 -11.7587890625 275.045898438 -9.5185546875 275.045898438 -7.27734375 c 6
 263.842773438 40.8974609375 l 6
 263.842773438 43.1376953125 263.842773438 44.2587890625 264.962890625 46.4990234375 c 132
 266.083984375 48.740234375 268.32421875 49.859375 270.564453125 49.859375 c 6
215.666992188 54.341796875 m 6
 250.397460938 48.740234375 l 6
 252.638671875 48.740234375 253.758789062 48.740234375 254.879882812 46.4990234375 c 132
 256 44.2587890625 257.120117188 42.017578125 257.120117188 39.77734375 c 6
 248.157226562 -8.3984375 l 6
 248.157226562 -10.638671875 248.157226562 -12.8798828125 245.916015625 -14 c 132
 243.67578125 -15.1201171875 242.555664062 -15.1201171875 240.315429688 -15.1201171875 c 6
 205.584960938 -9.5185546875 l 6
 203.34375 -9.5185546875 202.223632812 -8.3984375 201.102539062 -6.158203125 c 132
 199.982421875 -3.9169921875 198.86328125 -2.796875 198.86328125 -0.5556640625 c 6
 206.704101562 48.740234375 l 6
 206.704101562 50.9814453125 207.825195312 52.1005859375 210.06640625 53.220703125 c 132
 212.306640625 54.341796875 213.426757812 54.341796875 215.666992188 54.341796875 c 6
166.372070312 78.990234375 m 6
 196.622070312 61.0634765625 l 6
 198.86328125 59.943359375 201.102539062 58.822265625 201.102539062 56.58203125 c 132
 201.102539062 54.341796875 201.102539062 53.220703125 199.982421875 50.9814453125 c 6
 175.334960938 8.40625 l 6
 174.21484375 6.1669921875 171.973632812 3.92578125 169.732421875 3.92578125 c 132
 167.4921875 3.92578125 167.4921875 3.92578125 165.251953125 5.0458984375 c 6
 133.881835938 22.97265625 l 6
 131.640625 24.091796875 130.520507812 25.2119140625 130.520507812 27.453125 c 132
 130.520507812 29.6943359375 130.520507812 30.8134765625 131.640625 33.0546875 c 6
 156.2890625 75.6279296875 l 6
 157.409179688 77.8681640625 158.529296875 80.109375 160.770507812 80.109375 c 132
 163.010742188 80.109375 164.130859375 80.109375 166.372070312 78.990234375 c 6
129.400390625 118.202148438 m 6
 151.807617188 91.3125 l 6
 152.927734375 89.072265625 152.927734375 87.9521484375 152.927734375 85.7119140625 c 132
 152.927734375 83.470703125 152.927734375 82.3505859375 150.686523438 81.2294921875 c 6
 111.474609375 49.859375 l 6
 109.234375 48.740234375 109.234375 48.740234375 106.993164062 48.740234375 c 132
 104.752929688 48.740234375 102.51171875 48.740234375 101.391601562 50.9814453125 c 6
 78.984375 77.8681640625 l 6
 77.8642578125 80.109375 77.8642578125 81.2294921875 77.8642578125 83.470703125 c 132
 77.8642578125 85.7119140625 77.8642578125 87.9521484375 80.10546875 89.072265625 c 6
 118.197265625 120.44140625 l 6
 120.4375 121.5625 122.677734375 121.5625 124.918945312 121.5625 c 132
 127.159179688 121.5625 128.280273438 120.44140625 129.400390625 118.202148438 c 6
109.234375 169.73828125 m 6
 120.4375 136.126953125 l 6
 120.4375 133.885742188 120.4375 132.766601562 119.317382812 130.525390625 c 132
 118.197265625 128.284179688 117.076171875 127.1640625 114.836914062 127.1640625 c 6
 67.78125 111.479492188 l 6
 65.541015625 110.359375 64.419921875 110.359375 62.1796875 111.479492188 c 132
 59.9384765625 112.599609375 58.8193359375 113.720703125 58.8193359375 115.9609375 c 6
 47.615234375 149.571289062 l 6
 47.615234375 151.8125 47.615234375 152.932617188 48.7353515625 155.172851562 c 132
 49.85546875 157.4140625 49.85546875 158.533203125 52.0966796875 158.533203125 c 6
 100.271484375 174.219726562 l 6
 102.51171875 174.219726562 102.51171875 175.338867188 104.752929688 174.219726562 c 132
 106.993164062 173.098632812 108.114257812 171.978515625 109.234375 169.73828125 c 6
108.114257812 224.634765625 m 6
 106.993164062 188.783203125 l 6
 106.993164062 186.541992188 105.873046875 185.422851562 104.752929688 184.301757812 c 132
 102.51171875 183.181640625 100.271484375 182.060546875 98.03125 182.060546875 c 6
 48.7353515625 184.301757812 l 6
 46.494140625 184.301757812 45.375 185.422851562 44.2529296875 187.663085938 c 132
 43.1337890625 189.903320312 42.013671875 189.903320312 42.013671875 192.14453125 c 6
 44.2529296875 227.99609375 l 6
 44.2529296875 230.237304688 44.2529296875 231.356445312 46.494140625 232.4765625 c 132
 47.615234375 233.59765625 49.85546875 234.717773438 52.0966796875 234.717773438 c 6
 101.391601562 232.4765625 l 6
 103.631835938 232.4765625 105.873046875 232.4765625 106.993164062 230.237304688 c 132
 108.114257812 229.116210938 108.114257812 226.875 108.114257812 224.634765625 c 6
127.159179688 275.05078125 m 6
 113.71484375 243.680664062 l 6
 112.595703125 241.440429688 111.474609375 239.19921875 109.234375 239.19921875 c 132
 106.993164062 238.078125 104.752929688 238.078125 102.51171875 239.19921875 c 6
 57.697265625 259.365234375 l 6
 55.45703125 260.485351562 54.3369140625 261.606445312 53.216796875 263.84765625 c 132
 53.216796875 266.086914062 53.216796875 267.208007812 54.3369140625 269.44921875 c 6
 68.9013671875 301.938476562 l 6
 70.0224609375 304.1796875 70.0224609375 305.298828125 72.26171875 306.420898438 c 132
 74.5029296875 307.540039062 75.6240234375 306.420898438 77.8642578125 305.298828125 c 6
 123.798828125 285.133789062 l 6
 126.040039062 284.013671875 127.159179688 284.013671875 127.159179688 281.772460938 c 132
 128.280273438 279.53125 128.280273438 277.290039062 127.159179688 275.05078125 c 6
163.010742188 316.502929688 m 6
 138.36328125 291.856445312 l 6
 136.123046875 289.615234375 135.001953125 289.615234375 132.76171875 289.615234375 c 132
 130.520507812 289.615234375 129.400390625 289.615234375 127.159179688 291.856445312 c 6
 92.4287109375 326.5859375 l 6
 91.30859375 327.70703125 90.1884765625 329.947265625 90.1884765625 332.188476562 c 132
 90.1884765625 334.4296875 91.30859375 336.669921875 92.4287109375 337.790039062 c 6
 118.197265625 362.438476562 l 6
 120.4375 363.557617188 120.4375 364.678710938 122.677734375 364.678710938 c 132
 124.918945312 364.678710938 127.159179688 363.557617188 128.280273438 362.438476562 c 6
 163.010742188 327.70703125 l 6
 164.130859375 325.466796875 165.251953125 324.345703125 165.251953125 322.104492188 c 132
 165.251953125 319.865234375 165.251953125 317.624023438 163.010742188 316.502929688 c 6
151.807617188 399.409179688 m 5
 348.989257812 399.409179688 l 5
 269.444335938 280.65234375 l 5
 258.241210938 262.7265625 l 5
 151.807617188 399.409179688 l 5
EndSplineSet
Validated: 524289
EndChar

StartChar: uni008B
Encoding: 139 139 12
Width: 512
Flags: HW
LayerCount: 2
Fore
SplineSet
151.603515625 414.134765625 m 5
 180.928710938 385.983398438 l 5
 207.90625 397.713867188 234.885742188 403.578125 264.2109375 403.578125 c 4
 264.2109375 403.578125 l 6
 292.36328125 403.578125 318.168945312 397.713867188 343.974609375 387.15625 c 132
 369.78125 376.599609375 392.068359375 362.5234375 412.008789062 342.58203125 c 132
 431.950195312 322.640625 446.025390625 300.354492188 456.583007812 274.548828125 c 132
 467.139648438 248.7421875 473.004882812 222.935546875 473.004882812 194.784179688 c 132
 473.004882812 166.631835938 467.139648438 140.826171875 456.583007812 115.020507812 c 132
 446.025390625 89.2138671875 431.950195312 66.9267578125 412.008789062 46.986328125 c 132
 392.068359375 28.21875 369.78125 12.9697265625 343.974609375 2.412109375 c 132
 318.168945312 -8.14453125 292.36328125 -14.009765625 264.2109375 -14.009765625 c 132
 236.059570312 -14.009765625 210.252929688 -8.14453125 184.446289062 2.412109375 c 132
 158.640625 12.9697265625 136.354492188 28.21875 116.413085938 46.986328125 c 132
 97.64453125 66.9267578125 82.3955078125 89.2138671875 71.8388671875 115.020507812 c 132
 61.28125 140.826171875 55.4169921875 166.631835938 55.4169921875 194.784179688 c 4
 55.4169921875 222.935546875 61.28125 251.088867188 73.01171875 276.89453125 c 5
 46.033203125 302.700195312 l 6
 41.3408203125 307.391601562 38.9951171875 313.256835938 38.9951171875 319.122070312 c 4
 38.9951171875 324.986328125 41.3408203125 328.505859375 46.033203125 333.198242188 c 6
 121.10546875 412.961914062 l 6
 125.796875 417.654296875 130.489257812 420 136.354492188 420 c 4
 141.045898438 420 146.911132812 418.827148438 151.603515625 414.134765625 c 5
137.526367188 367.21484375 m 5
 92.953125 319.122070312 l 5
 146.911132812 267.509765625 l 5
 189.139648438 227.62890625 l 5
 233.713867188 275.720703125 l 5
 196.176757812 310.911132812 l 5
 160.986328125 343.754882812 l 5
 137.526367188 367.21484375 l 5
264.2109375 359.00390625 m 4
 247.7890625 359.00390625 231.366210938 356.658203125 216.118164062 351.965820312 c 5
 225.501953125 343.754882812 l 5
 280.633789062 292.143554688 l 6
 285.325195312 287.451171875 286.498046875 282.759765625 286.498046875 275.720703125 c 4
 286.498046875 269.85546875 285.325195312 265.1640625 280.633789062 260.471679688 c 6
 205.560546875 181.880859375 l 6
 200.869140625 177.189453125 195.00390625 174.84375 189.139648438 174.84375 c 4
 184.446289062 174.84375 179.754882812 176.015625 175.063476562 180.708984375 c 6
 114.06640625 238.185546875 l 5
 107.029296875 244.049804688 l 5
 102.336914062 227.62890625 99.9912109375 211.206054688 99.9912109375 194.784179688 c 4
 99.9912109375 172.497070312 103.509765625 151.383789062 111.720703125 131.44140625 c 132
 119.931640625 111.500976562 131.661132812 92.7333984375 146.911132812 77.484375 c 132
 162.16015625 62.2353515625 180.928710938 50.5048828125 200.869140625 42.2939453125 c 132
 220.809570312 34.083984375 241.923828125 30.564453125 264.2109375 30.564453125 c 132
 285.325195312 30.564453125 307.611328125 34.083984375 327.553710938 42.2939453125 c 132
 347.494140625 50.5048828125 365.088867188 62.2353515625 380.338867188 77.484375 c 132
 395.586914062 92.7333984375 408.490234375 111.500976562 416.701171875 131.44140625 c 132
 424.911132812 151.383789062 428.430664062 172.497070312 428.430664062 194.784179688 c 132
 428.430664062 215.8984375 424.911132812 238.185546875 416.701171875 258.125976562 c 132
 408.490234375 278.06640625 395.586914062 295.662109375 380.338867188 310.911132812 c 132
 365.088867188 326.16015625 347.494140625 339.063476562 327.553710938 347.274414062 c 132
 307.611328125 355.485351562 285.325195312 359.00390625 264.2109375 359.00390625 c 4
EndSplineSet
Validated: 524289
EndChar

StartChar: uni008C
Encoding: 140 140 13
Width: 512
Flags: HW
LayerCount: 2
Fore
SplineSet
170.702148438 422 m 5
 443.65625 420.823242188 l 5
 381.30078125 261.9921875 l 5
 291.884765625 199.635742188 l 5
 302.473632812 187.870117188 311.884765625 173.751953125 317.767578125 159.633789062 c 132
 323.650390625 144.338867188 326.00390625 129.044921875 326.00390625 112.572265625 c 4
 326.00390625 94.923828125 322.474609375 79.62890625 315.415039062 63.1591796875 c 132
 308.35546875 46.6875 300.120117188 32.5673828125 288.354492188 20.802734375 c 132
 276.588867188 9.037109375 263.6484375 0.802734375 247.176757812 -6.2568359375 c 132
 230.704101562 -13.31640625 215.41015625 -16.845703125 197.76171875 -16.845703125 c 132
 180.11328125 -16.845703125 164.818359375 -13.31640625 148.34765625 -6.2568359375 c 132
 131.876953125 0.802734375 117.756835938 9.037109375 105.9921875 20.802734375 c 132
 94.2265625 32.5673828125 85.990234375 46.6875 78.9326171875 63.1591796875 c 132
 71.8720703125 79.62890625 68.34375 94.923828125 68.34375 112.572265625 c 4
 68.34375 138.45703125 76.580078125 163.165039062 90.6982421875 184.341796875 c 132
 104.815429688 205.518554688 124.81640625 221.990234375 148.34765625 231.40234375 c 5
 124.81640625 274.934570312 l 5
 170.702148438 422 l 5
377.770507812 369.056640625 m 5
 217.76171875 367.87890625 l 5
 182.467773438 277.286132812 l 5
 211.879882812 192.577148438 l 5
 180.11328125 93.7490234375 l 5
 149.5234375 89.041015625 l 5
 171.877929688 190.223632812 l 5
 170.702148438 192.577148438 l 5
 154.23046875 186.694335938 140.112304688 176.104492188 129.5234375 161.987304688 c 132
 118.93359375 147.869140625 113.051757812 131.397460938 113.051757812 112.572265625 c 4
 113.051757812 89.041015625 121.287109375 69.0419921875 137.759765625 52.5693359375 c 132
 154.23046875 36.09765625 174.23046875 27.86328125 197.76171875 27.86328125 c 132
 221.291992188 27.86328125 241.29296875 36.09765625 257.764648438 52.5693359375 c 132
 274.235351562 69.0419921875 282.47265625 89.041015625 282.47265625 112.572265625 c 4
 282.47265625 129.044921875 277.765625 143.162109375 269.53125 157.28125 c 5
 247.176757812 107.866210938 l 5
 215.41015625 100.807617188 l 5
 258.94140625 216.108398438 l 5
 341.297851562 280.81640625 l 5
 377.770507812 369.056640625 l 5
EndSplineSet
Validated: 524289
EndChar

StartChar: uni008D
Encoding: 141 141 14
Width: 512
Flags: HW
LayerCount: 2
Fore
SplineSet
191.5078125 422 m 5
 331.143554688 422 l 5
 331.143554688 360.466796875 l 5
 408.060546875 361.650390625 l 6
 412.793945312 361.650390625 416.34375 359.283203125 418.7109375 356.916992188 c 132
 421.077148438 354.549804688 423.444335938 352.182617188 423.444335938 347.44921875 c 6
 424.626953125 61.0791015625 l 6
 424.626953125 56.345703125 423.444335938 52.7958984375 421.077148438 50.4287109375 c 132
 418.7109375 48.0625 415.16015625 46.87890625 410.427734375 46.87890625 c 6
 331.143554688 45.6943359375 l 5
 331.143554688 -14.654296875 l 5
 191.5078125 -14.654296875 l 5
 191.5078125 44.5126953125 l 5
 103.939453125 43.3291015625 l 6
 100.389648438 43.3291015625 95.65625 45.6943359375 93.2890625 48.0625 c 132
 90.9228515625 50.4287109375 88.5556640625 53.9794921875 88.5556640625 58.7119140625 c 6
 87.373046875 343.900390625 l 6
 87.373046875 348.633789062 88.5556640625 352.182617188 90.9228515625 354.549804688 c 132
 93.2890625 356.916992188 96.83984375 358.100585938 101.572265625 358.100585938 c 6
 191.5078125 359.283203125 l 5
 191.5078125 422 l 5
393.860351562 332.06640625 m 5
 116.95703125 328.516601562 l 5
 119.322265625 72.9130859375 l 5
 395.04296875 75.2783203125 l 5
 393.860351562 332.06640625 l 5
174.940429688 276.448242188 m 5
 339.426757812 276.448242188 l 5
 339.426757812 231.482421875 l 5
 174.940429688 231.482421875 l 5
 174.940429688 276.448242188 l 5
174.940429688 174.680664062 m 5
 339.426757812 174.680664062 l 5
 339.426757812 129.713867188 l 5
 174.940429688 129.713867188 l 5
 174.940429688 174.680664062 l 5
EndSplineSet
Validated: 524289
EndChar

StartChar: uni008E
Encoding: 142 142 15
Width: 512
Flags: HW
LayerCount: 2
Fore
SplineSet
350.026367188 413.337890625 m 0
 377.884765625 413.337890625 403.422851562 408.6953125 428.959960938 398.248046875 c 0
 434.763671875 395.92578125 439.408203125 392.443359375 442.890625 387.80078125 c 128
 446.373046875 383.157226562 448.694335938 377.353515625 448.694335938 370.388671875 c 0
 448.694335938 362.263671875 445.211914062 355.297851562 439.408203125 349.494140625 c 128
 433.603515625 343.689453125 426.638671875 341.368164062 418.513671875 341.368164062 c 0
 413.87109375 341.368164062 410.388671875 341.368164062 406.905273438 343.689453125 c 0
 388.33203125 350.654296875 369.759765625 354.13671875 350.026367188 354.13671875 c 0
 322.166015625 354.13671875 297.790039062 348.333984375 274.573242188 334.403320312 c 128
 251.357421875 320.473632812 232.783203125 303.061523438 218.854492188 279.844726562 c 1
 318.68359375 216 l 1
 209.567382812 133.583984375 l 1
 222.336914062 106.884765625 240.909179688 84.828125 266.447265625 68.578125 c 128
 291.985351562 52.3271484375 319.844726562 44.201171875 350.026367188 44.201171875 c 0
 369.759765625 44.201171875 388.33203125 47.68359375 406.905273438 54.6484375 c 0
 410.388671875 55.80859375 415.03125 56.9697265625 418.513671875 56.9697265625 c 0
 426.638671875 56.9697265625 433.603515625 54.6484375 439.408203125 48.84375 c 128
 445.211914062 43.0400390625 447.533203125 36.07421875 447.533203125 27.94921875 c 0
 447.533203125 22.14453125 445.211914062 16.341796875 441.729492188 11.69921875 c 128
 438.24609375 7.0546875 434.763671875 3.572265625 428.959960938 1.2509765625 c 0
 403.422851562 -9.1962890625 377.884765625 -15 350.026367188 -15 c 0
 310.557617188 -15 274.573242188 -4.5537109375 240.909179688 16.341796875 c 128
 208.407226562 36.07421875 181.708984375 62.7734375 163.135742188 96.4365234375 c 1
 63.3056640625 19.82421875 l 1
 63.3056640625 351.815429688 l 1
 63.3056640625 378.513671875 l 1
 168.938476562 311.186523438 l 1
 187.512695312 342.529296875 213.05078125 366.90625 245.552734375 385.478515625 c 128
 278.0546875 404.05078125 312.87890625 413.337890625 350.026367188 413.337890625 c 0
93.486328125 325.1171875 m 1
 93.486328125 80.1865234375 l 1
 267.607421875 213.6796875 l 1
 93.486328125 325.1171875 l 1
EndSplineSet
Validated: 524289
EndChar

StartChar: uni008F
Encoding: 143 143 16
Width: 512
Flags: HW
LayerCount: 2
Fore
SplineSet
92.4951171875 422 m 6
 420.677734375 422 l 6
 424.193359375 422 427.709960938 420.828125 430.0546875 418.482421875 c 132
 432.3984375 416.138671875 433.569335938 411.451171875 433.569335938 407.934570312 c 6
 433.569335938 3.5673828125 l 6
 433.569335938 0.05078125 432.3984375 -3.4658203125 430.0546875 -5.8095703125 c 132
 427.709960938 -8.1533203125 424.193359375 -10.498046875 420.677734375 -10.498046875 c 6
 92.4951171875 -10.498046875 l 6
 88.978515625 -10.498046875 85.4619140625 -8.1533203125 83.1181640625 -5.8095703125 c 132
 80.7744140625 -3.4658203125 78.4306640625 0.05078125 78.4306640625 3.5673828125 c 6
 78.4306640625 407.934570312 l 6
 78.4306640625 411.451171875 80.7744140625 416.138671875 83.1181640625 418.482421875 c 132
 85.4619140625 420.828125 88.978515625 422 92.4951171875 422 c 6
106.559570312 395.041015625 m 5
 106.559570312 17.6318359375 l 5
 155.787109375 17.6318359375 l 5
 153.442382812 19.9755859375 153.442382812 22.3203125 153.442382812 24.6640625 c 6
 153.442382812 73.892578125 l 6
 153.442382812 77.408203125 155.787109375 80.9248046875 158.130859375 83.26953125 c 132
 160.475585938 85.61328125 163.991210938 87.95703125 167.5078125 87.95703125 c 6
 215.563476562 87.95703125 l 6
 219.080078125 87.95703125 222.595703125 85.61328125 224.940429688 83.26953125 c 132
 227.284179688 80.9248046875 229.627929688 77.408203125 229.627929688 73.892578125 c 6
 229.627929688 24.6640625 l 6
 229.627929688 22.3203125 228.456054688 19.9755859375 227.284179688 17.6318359375 c 5
 406.61328125 17.6318359375 l 5
 406.61328125 259.081054688 l 5
 344.4921875 257.908203125 l 5
 268.307617188 297.759765625 l 5
 244.866210938 309.48046875 l 5
 339.803710938 361.051757812 l 5
 406.61328125 362.223632812 l 5
 406.61328125 395.041015625 l 5
 226.112304688 395.041015625 l 5
 226.112304688 351.674804688 l 6
 226.112304688 348.158203125 224.940429688 343.470703125 222.595703125 341.126953125 c 132
 220.250976562 338.782226562 215.563476562 337.609375 212.047851562 337.609375 c 6
 165.163085938 337.609375 l 6
 161.647460938 337.609375 156.959960938 338.782226562 154.616210938 341.126953125 c 132
 152.270507812 343.470703125 151.098632812 348.158203125 151.098632812 351.674804688 c 6
 151.098632812 395.041015625 l 5
 106.559570312 395.041015625 l 5
165.163085938 305.963867188 m 6
 214.391601562 305.963867188 l 6
 217.907226562 305.963867188 221.423828125 304.791015625 223.768554688 302.447265625 c 132
 226.112304688 300.103515625 228.456054688 295.4140625 228.456054688 291.899414062 c 6
 228.456054688 243.84375 l 6
 228.456054688 240.327148438 226.112304688 236.810546875 223.768554688 234.466796875 c 132
 221.423828125 232.123046875 217.907226562 230.950195312 214.391601562 230.950195312 c 6
 165.163085938 230.950195312 l 6
 161.647460938 230.950195312 158.130859375 232.123046875 155.787109375 234.466796875 c 132
 153.442382812 236.810546875 152.270507812 240.327148438 152.270507812 243.84375 c 6
 152.270507812 291.899414062 l 6
 152.270507812 295.4140625 153.442382812 300.103515625 155.787109375 302.447265625 c 132
 158.130859375 304.791015625 161.647460938 305.963867188 165.163085938 305.963867188 c 6
165.163085938 193.443359375 m 6
 214.391601562 193.443359375 l 6
 217.907226562 193.443359375 221.423828125 191.099609375 223.768554688 188.755859375 c 132
 226.112304688 186.412109375 228.456054688 182.895507812 228.456054688 179.37890625 c 6
 228.456054688 131.323242188 l 6
 228.456054688 127.80859375 226.112304688 123.119140625 223.768554688 120.775390625 c 132
 221.423828125 118.431640625 217.907226562 117.258789062 214.391601562 117.258789062 c 6
 165.163085938 117.258789062 l 6
 161.647460938 117.258789062 158.130859375 118.431640625 155.787109375 120.775390625 c 132
 153.442382812 123.119140625 152.270507812 127.80859375 152.270507812 131.323242188 c 6
 152.270507812 179.37890625 l 6
 152.270507812 182.895507812 153.442382812 186.412109375 155.787109375 188.755859375 c 132
 158.130859375 191.099609375 161.647460938 193.443359375 165.163085938 193.443359375 c 6
EndSplineSet
Validated: 524289
EndChar

StartChar: uni0090
Encoding: 144 144 17
Width: 512
Flags: HW
LayerCount: 2
Fore
SplineSet
256 422 m 128
 283.720703125 422 311.439453125 416.225585938 338.004882812 405.831054688 c 128
 364.5703125 394.28125 386.514648438 380.420898438 407.3046875 359.630859375 c 128
 426.939453125 339.99609375 443.110351562 316.895507812 453.504882812 290.331054688 c 128
 465.0546875 263.764648438 469.674804688 236.045898438 469.674804688 208.325195312 c 128
 469.674804688 180.606445312 465.0546875 151.731445312 453.504882812 126.3203125 c 128
 443.110351562 99.755859375 426.939453125 77.810546875 407.3046875 57.0205078125 c 128
 386.514648438 37.3857421875 364.5703125 21.21484375 338.004882812 10.8203125 c 128
 311.439453125 -0.7294921875 283.720703125 -6.50390625 256 -6.50390625 c 128
 227.125 -6.50390625 200.560546875 -0.7294921875 173.995117188 10.8203125 c 128
 147.4296875 21.21484375 124.330078125 37.3857421875 104.6953125 57.0205078125 c 128
 83.904296875 77.810546875 70.044921875 99.755859375 58.4951171875 126.3203125 c 128
 46.9453125 151.731445312 42.3251953125 180.606445312 42.3251953125 208.325195312 c 128
 42.3251953125 236.045898438 46.9453125 263.764648438 58.4951171875 290.331054688 c 128
 70.044921875 316.895507812 83.904296875 339.99609375 104.6953125 359.630859375 c 128
 124.330078125 380.420898438 147.4296875 394.28125 173.995117188 405.831054688 c 128
 200.560546875 416.225585938 227.125 422 256 422 c 128
256 379.264648438 m 0
 251.379882812 379.264648438 246.759765625 378.110351562 242.139648438 378.110351562 c 1
 242.139648438 269.540039062 l 1
 262.9296875 269.540039062 l 1
 262.9296875 379.264648438 l 1
 260.620117188 379.264648438 258.310546875 379.264648438 256 379.264648438 c 0
294.115234375 374.645507812 m 1
 294.115234375 254.525390625 l 2
 294.115234375 249.90625 291.8046875 245.28515625 289.495117188 242.975585938 c 128
 287.185546875 240.665039062 282.564453125 238.356445312 277.9453125 238.356445312 c 2
 227.125 238.356445312 l 2
 222.504882812 238.356445312 217.884765625 239.510742188 215.575195312 242.975585938 c 128
 212.110351562 245.28515625 210.955078125 249.90625 210.955078125 254.525390625 c 2
 212.110351562 372.3359375 l 1
 182.080078125 364.25 156.669921875 349.235351562 135.879882812 328.4453125 c 0
 119.709960938 312.275390625 108.16015625 293.795898438 98.919921875 273.005859375 c 128
 89.6796875 252.21484375 86.21484375 231.42578125 86.21484375 208.325195312 c 0
 86.21484375 182.915039062 90.8349609375 159.815429688 101.229492188 136.71484375 c 1
 192.474609375 215.255859375 l 2
 195.939453125 217.565429688 199.404296875 217.565429688 204.025390625 217.565429688 c 128
 208.645507812 217.565429688 212.110351562 216.41015625 214.419921875 212.9453125 c 2
 247.915039062 173.67578125 l 2
 250.224609375 170.2109375 251.379882812 167.900390625 251.379882812 163.28125 c 128
 251.379882812 158.66015625 249.0703125 155.1953125 245.604492188 152.885742188 c 2
 153.205078125 72.03515625 l 1
 183.235351562 48.935546875 217.884765625 37.3857421875 256 37.3857421875 c 0
 279.099609375 37.3857421875 301.045898438 40.8505859375 321.834960938 50.08984375 c 128
 342.625 59.3310546875 361.104492188 70.880859375 377.275390625 87.05078125 c 0
 378.4296875 88.2060546875 378.4296875 89.3603515625 379.584960938 90.5146484375 c 1
 277.9453125 158.66015625 l 2
 274.479492188 160.970703125 273.325195312 164.435546875 272.169921875 169.055664062 c 128
 271.014648438 173.67578125 272.169921875 177.139648438 274.479492188 180.606445312 c 2
 303.354492188 222.185546875 l 2
 305.665039062 225.650390625 307.974609375 227.9609375 312.595703125 229.115234375 c 128
 317.21484375 229.115234375 320.6796875 229.115234375 324.145507812 226.805664062 c 2
 420.009765625 160.970703125 l 1
 424.629882812 175.985351562 426.939453125 192.15625 426.939453125 208.325195312 c 0
 426.939453125 231.42578125 423.474609375 252.21484375 414.235351562 273.005859375 c 128
 404.995117188 293.795898438 393.4453125 312.275390625 377.275390625 328.4453125 c 0
 354.174804688 351.545898438 326.455078125 367.71484375 294.115234375 374.645507812 c 1
319.525390625 192.15625 m 1
 307.974609375 175.985351562 l 1
 398.064453125 113.615234375 l 1
 401.529296875 119.389648438 406.150390625 126.3203125 408.459960938 132.095703125 c 1
 319.525390625 192.15625 l 1
200.560546875 180.606445312 m 1
 117.400390625 108.99609375 l 1
 119.709960938 106.685546875 120.865234375 103.220703125 123.174804688 100.91015625 c 2
 130.104492188 92.8251953125 l 1
 130.104492188 92.8251953125 l 1
 214.419921875 165.58984375 l 1
 200.560546875 180.606445312 l 1
EndSplineSet
Validated: 524293
EndChar

StartChar: uni0091
Encoding: 145 145 18
Width: 512
Flags: HW
LayerCount: 2
Fore
SplineSet
167.064453125 422 m 132
 187.854492188 422 208.645507812 416.225585938 227.125 405.830078125 c 132
 245.604492188 395.435546875 258.310546875 381.575195312 268.704101562 363.095703125 c 132
 279.099609375 344.615234375 284.875 324.979492188 284.875 304.190429688 c 4
 284.875 285.709960938 280.254882812 268.385742188 272.170898438 252.21484375 c 132
 264.084960938 236.045898438 252.53515625 222.185546875 238.674804688 210.635742188 c 5
 254.845703125 206.014648438 268.704101562 201.395507812 283.720703125 193.310546875 c 6
 290.650390625 189.845703125 l 5
 292.959960938 189.845703125 295.270507812 191 297.579101562 191 c 5
 288.33984375 204.860351562 283.720703125 221.030273438 283.720703125 238.354492188 c 4
 283.720703125 263.764648438 291.8046875 284.5546875 310.28515625 301.879882812 c 132
 327.610351562 320.360351562 349.5546875 329.600585938 374.96484375 329.600585938 c 132
 400.375 329.600585938 420.009765625 320.360351562 438.490234375 301.879882812 c 132
 455.814453125 284.5546875 465.0546875 263.764648438 465.0546875 238.354492188 c 4
 465.0546875 221.030273438 460.435546875 204.860351562 451.1953125 191 c 132
 441.954101562 177.139648438 431.560546875 165.58984375 416.545898438 158.66015625 c 5
 435.025390625 141.334960938 447.729492188 118.235351562 455.814453125 91.6708984375 c 132
 460.435546875 75.5 462.745117188 58.1748046875 462.745117188 39.6953125 c 4
 462.745117188 28.1455078125 462.745117188 16.595703125 460.435546875 5.0458984375 c 5
 163.599609375 5.0458984375 l 5
 161.290039062 -5.349609375 l 5
 52.720703125 -5.349609375 l 5
 49.2548828125 11.9755859375 l 6
 46.9453125 23.525390625 46.9453125 36.2294921875 46.9453125 47.7802734375 c 4
 46.9453125 61.6396484375 49.2548828125 75.5 51.564453125 89.3603515625 c 132
 56.185546875 113.615234375 65.4248046875 135.560546875 79.28515625 154.040039062 c 4
 91.990234375 171.365234375 105.849609375 185.225585938 124.329101562 195.620117188 c 5
 102.384765625 204.860351562 83.904296875 218.720703125 70.044921875 238.354492188 c 132
 56.185546875 257.990234375 50.41015625 279.935546875 50.41015625 304.190429688 c 4
 50.41015625 324.979492188 55.029296875 344.615234375 65.4248046875 363.095703125 c 132
 75.8203125 381.575195312 90.8349609375 395.435546875 109.314453125 405.830078125 c 132
 127.795898438 416.225585938 146.275390625 422 167.064453125 422 c 132
167.064453125 380.420898438 m 132
 146.275390625 380.420898438 128.950195312 373.490234375 113.935546875 358.475585938 c 132
 98.919921875 343.459960938 90.8349609375 324.979492188 90.8349609375 304.190429688 c 132
 90.8349609375 283.400390625 98.919921875 266.075195312 113.935546875 251.060546875 c 132
 128.950195312 236.045898438 146.275390625 227.959960938 167.064453125 227.959960938 c 132
 187.854492188 227.959960938 206.334960938 236.045898438 221.349609375 251.060546875 c 132
 236.365234375 266.075195312 243.295898438 283.400390625 243.295898438 304.190429688 c 132
 243.295898438 324.979492188 236.365234375 343.459960938 221.349609375 358.475585938 c 132
 206.334960938 373.490234375 187.854492188 380.420898438 167.064453125 380.420898438 c 132
198.25 174.830078125 m 4
 161.290039062 174.830078125 132.415039062 160.970703125 111.625 130.940429688 c 4
 95.4541015625 107.83984375 87.3701171875 80.1201171875 87.3701171875 47.7802734375 c 4
 87.3701171875 43.16015625 87.3701171875 39.6953125 87.3701171875 35.0751953125 c 5
 130.104492188 35.0751953125 l 5
 138.189453125 63.9501953125 149.740234375 89.3603515625 167.064453125 112.459960938 c 132
 183.235351562 136.71484375 202.870117188 156.350585938 225.970703125 172.520507812 c 5
 216.729492188 174.830078125 207.490234375 174.830078125 198.25 174.830078125 c 4
EndSplineSet
Validated: 524289
EndChar

StartChar: uni0092
Encoding: 146 146 19
Width: 512
Flags: HW
LayerCount: 2
Fore
SplineSet
226.099609375 422 m 5
 407.799804688 251.80078125 l 5
 441.150390625 221.900390625 l 5
 395.150390625 221.900390625 l 5
 53.599609375 223.05078125 l 5
 53.599609375 286.30078125 l 5
 320.400390625 282.850585938 l 5
 201.950195312 396.700195312 l 5
 226.099609375 422 l 5
284.75 -1.19921875 m 5
 104.200195312 169 l 5
 69.7001953125 200.05078125 l 5
 115.700195312 200.05078125 l 5
 458.400390625 198.900390625 l 5
 457.25 134.5 l 5
 191.599609375 139.100585938 l 5
 308.900390625 24.1005859375 l 5
 284.75 -1.19921875 l 5
EndSplineSet
Validated: 524289
EndChar

StartChar: uni0093
Encoding: 147 147 20
Width: 512
Flags: HW
LayerCount: 2
Fore
SplineSet
214.599609375 292.05078125 m 1
 262.900390625 290.900390625 311.200195312 273.650390625 358.349609375 241.450195312 c 1
 333.049804688 221.900390625 l 1
 293.950195312 247.200195312 254.849609375 258.700195312 214.599609375 259.850585938 c 1
 214.599609375 292.05078125 l 1
214.599609375 357.600585938 m 1
 251.400390625 357.600585938 285.900390625 351.850585938 320.400390625 339.200195312 c 128
 353.75 326.55078125 385.950195312 308.150390625 413.549804688 286.30078125 c 1
 388.25 266.75 l 1
 362.950195312 285.150390625 337.650390625 300.100585938 307.75 310.450195312 c 128
 277.849609375 320.80078125 246.799804688 326.55078125 214.599609375 326.55078125 c 1
 214.599609375 357.600585938 l 1
214.599609375 422 m 1
 260.599609375 422 304.299804688 412.80078125 346.849609375 396.700195312 c 128
 389.400390625 380.600585938 427.349609375 357.600585938 461.849609375 327.700195312 c 1
 438.849609375 308.150390625 l 1
 407.799804688 333.450195312 372.150390625 354.150390625 334.200195312 367.950195312 c 128
 296.25 381.75 256 390.950195312 214.599609375 390.950195312 c 1
 214.599609375 422 l 1
224.950195312 228.80078125 m 0
 237.599609375 228.80078125 251.400390625 228.80078125 262.900390625 226.5 c 128
 274.400390625 224.200195312 285.900390625 220.75 295.099609375 216.150390625 c 128
 304.299804688 211.55078125 313.5 206.950195312 321.549804688 202.350585938 c 128
 330.75 197.75 336.5 192 343.400390625 186.25 c 128
 350.299804688 180.5 356.049804688 174.75 360.650390625 169 c 128
 365.25 163.25 371 157.5 374.450195312 152.900390625 c 128
 377.900390625 148.30078125 380.200195312 143.700195312 382.5 139.100585938 c 128
 384.799804688 134.5 387.099609375 131.05078125 388.25 128.75 c 2
 389.400390625 125.30078125 l 1
 389.400390625 111.5 l 2
 389.400390625 110.350585938 388.25 106.900390625 387.099609375 104.600585938 c 128
 385.950195312 102.30078125 383.650390625 96.55078125 379.049804688 88.5 c 128
 374.450195312 80.4501953125 369.849609375 73.55078125 364.099609375 66.650390625 c 128
 359.5 59.75 351.450195312 51.7001953125 342.25 42.5 c 128
 333.049804688 33.30078125 322.700195312 26.400390625 312.349609375 20.650390625 c 128
 302 13.75 288.200195312 10.30078125 273.25 5.7001953125 c 128
 258.299804688 1.1005859375 242.200195312 -1.19921875 224.950195312 -1.19921875 c 0
 166.299804688 -1.19921875 118 19.5 82.349609375 60.900390625 c 0
 67.400390625 78.150390625 57.0498046875 95.400390625 50.150390625 112.650390625 c 1
 50.150390625 125.30078125 l 2
 50.150390625 126.450195312 52.4501953125 128.75 53.599609375 131.05078125 c 128
 54.75 133.350585938 58.2001953125 139.100585938 62.7998046875 146 c 128
 67.400390625 152.900390625 72 159.80078125 77.75 166.700195312 c 128
 83.5 173.600585938 92.7001953125 180.5 101.900390625 188.55078125 c 128
 112.25 196.600585938 121.450195312 203.5 132.950195312 209.25 c 128
 144.450195312 215 158.25 219.600585938 174.349609375 223.05078125 c 128
 190.450195312 227.650390625 206.549804688 228.80078125 224.950195312 228.80078125 c 0
213.450195312 212.700195312 m 1
 189.299804688 210.400390625 168.599609375 198.900390625 152.5 180.5 c 128
 136.400390625 162.100585938 127.200195312 141.400390625 127.200195312 116.100585938 c 0
 127.200195312 98.8505859375 130.650390625 83.900390625 139.849609375 68.9501953125 c 128
 147.900390625 54 160.549804688 41.3505859375 175.5 33.30078125 c 128
 190.450195312 24.1005859375 205.400390625 20.650390625 222.650390625 20.650390625 c 128
 239.900390625 20.650390625 256 24.1005859375 270.950195312 33.30078125 c 128
 285.900390625 41.3505859375 297.400390625 54 306.599609375 68.9501953125 c 128
 315.799804688 83.900390625 319.25 98.8505859375 319.25 116.100585938 c 128
 319.25 133.350585938 315.799804688 149.450195312 306.599609375 164.400390625 c 128
 297.400390625 179.350585938 285.900390625 189.700195312 270.950195312 198.900390625 c 128
 256 206.950195312 239.900390625 212.700195312 222.650390625 212.700195312 c 2
 213.450195312 212.700195312 l 1
174.349609375 113.80078125 m 128
 174.349609375 127.600585938 178.950195312 139.100585938 188.150390625 148.30078125 c 128
 197.349609375 157.5 208.849609375 163.25 222.650390625 163.25 c 128
 236.450195312 163.25 249.099609375 157.5 258.299804688 148.30078125 c 128
 267.5 139.100585938 272.099609375 127.600585938 272.099609375 113.80078125 c 128
 272.099609375 100 267.5 88.5 258.299804688 79.30078125 c 128
 249.099609375 70.1005859375 236.450195312 65.5 222.650390625 65.5 c 128
 208.849609375 65.5 197.349609375 70.1005859375 188.150390625 79.30078125 c 128
 178.950195312 88.5 174.349609375 100 174.349609375 113.80078125 c 128
EndSplineSet
Validated: 524289
EndChar

StartChar: uni0094
Encoding: 148 148 21
Width: 512
Flags: HW
LayerCount: 2
Fore
SplineSet
136.400390625 41.3505859375 m 5
 376.75 41.3505859375 l 5
 376.75 295.5 l 5
 295.099609375 378.30078125 l 5
 136.400390625 378.30078125 l 5
 136.400390625 41.3505859375 l 5
92.7001953125 400.150390625 m 6
 92.7001953125 405.900390625 95 410.5 99.599609375 415.100585938 c 132
 104.200195312 419.700195312 108.799804688 422 114.549804688 422 c 6
 304.299804688 422 l 6
 310.049804688 422 315.799804688 419.700195312 320.400390625 415.100585938 c 6
 413.549804688 319.650390625 l 6
 418.150390625 315.05078125 419.299804688 310.450195312 419.299804688 304.700195312 c 6
 419.299804688 19.5 l 6
 419.299804688 13.75 418.150390625 9.150390625 413.549804688 4.55078125 c 132
 408.950195312 -0.0498046875 404.349609375 -1.19921875 398.599609375 -1.19921875 c 6
 114.549804688 -1.19921875 l 6
 108.799804688 -1.19921875 104.200195312 -0.0498046875 99.599609375 4.55078125 c 132
 95 9.150390625 92.7001953125 13.75 92.7001953125 19.5 c 6
 92.7001953125 400.150390625 l 6
290.5 308.150390625 m 5
 358.349609375 308.150390625 l 5
 358.349609375 279.400390625 l 5
 260.599609375 279.400390625 l 5
 260.599609375 366.80078125 l 5
 290.5 366.80078125 l 5
 290.5 308.150390625 l 5
EndSplineSet
Validated: 524289
EndChar

StartChar: uni0089
Encoding: 137 137 22
Width: 512
Flags: HW
LayerCount: 2
Fore
SplineSet
418.977539062 244.703125 m 4
 423.840820312 244.703125 429.921875 242.322265625 433.571289062 239.94140625 c 132
 437.221679688 237.561523438 439.65234375 233.9921875 440.869140625 229.233398438 c 4
 445.735351562 211.383789062 449.381835938 193.536132812 449.381835938 174.497070312 c 4
 449.381835938 148.319335938 443.301757812 124.51953125 433.571289062 100.721679688 c 132
 423.840820312 76.923828125 410.463867188 56.6943359375 393.435546875 40.0361328125 c 132
 376.408203125 23.375 355.731445312 9.0986328125 331.408203125 -0.419921875 c 132
 307.083007812 -9.94140625 282.755859375 -14.7001953125 256 -14.7001953125 c 132
 229.244140625 -14.7001953125 204.916992188 -9.94140625 180.591796875 -0.419921875 c 132
 156.268554688 9.0986328125 136.80859375 23.375 119.780273438 40.0361328125 c 132
 102.754882812 56.6943359375 88.1591796875 76.923828125 78.4287109375 100.721679688 c 132
 68.7001953125 124.51953125 62.6181640625 148.319335938 62.6181640625 174.497070312 c 4
 62.6181640625 205.435546875 68.7001953125 235.182617188 83.29296875 261.362304688 c 132
 97.8876953125 287.538085938 117.34765625 310.146484375 141.674804688 327.997070312 c 132
 165.998046875 345.844726562 192.75390625 356.553710938 223.162109375 361.313476562 c 4
 224.376953125 361.313476562 225.595703125 361.313476562 226.80859375 361.313476562 c 4
 232.890625 361.313476562 238.971679688 360.123046875 243.837890625 355.364257812 c 132
 248.703125 350.604492188 249.918945312 345.844726562 249.918945312 339.89453125 c 4
 249.918945312 333.946289062 247.487304688 329.1875 243.837890625 324.426757812 c 132
 240.189453125 319.666992188 236.540039062 318.477539062 231.674804688 317.287109375 c 4
 208.56640625 313.716796875 186.672851562 304.198242188 168.431640625 291.108398438 c 132
 148.970703125 276.830078125 135.591796875 260.171875 124.645507812 239.94140625 c 132
 113.69921875 219.713867188 107.618164062 198.294921875 107.618164062 174.497070312 c 4
 107.618164062 155.458007812 112.482421875 136.41796875 119.780273438 118.5703125 c 132
 127.077148438 100.721679688 138.024414062 85.25390625 151.403320312 72.1630859375 c 132
 164.783203125 59.0751953125 180.591796875 48.365234375 198.8359375 41.2255859375 c 132
 217.080078125 34.0859375 236.540039062 30.517578125 256 30.517578125 c 132
 275.4609375 30.517578125 294.919921875 34.0859375 313.165039062 41.2255859375 c 132
 331.408203125 48.365234375 347.21875 59.0751953125 360.596679688 72.1630859375 c 132
 373.975585938 85.25390625 384.922851562 100.721679688 392.219726562 118.5703125 c 132
 399.518554688 136.41796875 404.381835938 155.458007812 404.381835938 174.497070312 c 4
 404.381835938 188.775390625 401.948242188 201.864257812 397.0859375 216.143554688 c 4
 397.0859375 218.524414062 397.0859375 220.90234375 397.0859375 223.284179688 c 4
 397.0859375 229.233398438 398.30078125 233.9921875 403.166992188 238.751953125 c 132
 408.030273438 243.51171875 412.896484375 244.703125 418.977539062 244.703125 c 4
358.163085938 422 m 4
 382.491210938 422 403.166992188 412.48046875 421.408203125 395.822265625 c 132
 438.436523438 379.163085938 448.16796875 357.745117188 448.16796875 333.946289062 c 4
 448.16796875 319.666992188 445.735351562 305.38671875 438.436523438 293.489257812 c 132
 431.140625 281.58984375 410.463867188 261.362304688 410.463867188 261.362304688 c 5
 410.463867188 261.362304688 l 5
 229.244140625 130.470703125 l 5
 269.37890625 352.984375 l 5
 269.37890625 352.984375 l 5
 274.244140625 373.213867188 283.973632812 388.682617188 301.001953125 401.772460938 c 132
 318.02734375 414.859375 336.272460938 422 358.163085938 422 c 4
358.163085938 377.971679688 m 132
 346.001953125 377.971679688 335.0546875 373.213867188 326.54296875 364.883789062 c 132
 318.02734375 356.553710938 313.165039062 345.844726562 313.165039062 333.946289062 c 132
 313.165039062 322.045898438 318.02734375 311.337890625 326.54296875 303.008789062 c 132
 335.0546875 294.6796875 346.001953125 289.918945312 358.163085938 289.918945312 c 132
 370.325195312 289.918945312 381.2734375 294.6796875 389.78515625 303.008789062 c 132
 398.30078125 311.337890625 401.948242188 322.045898438 401.948242188 333.946289062 c 132
 401.948242188 345.844726562 398.30078125 356.553710938 389.78515625 364.883789062 c 132
 381.2734375 373.213867188 370.325195312 377.971679688 358.163085938 377.971679688 c 132
EndSplineSet
Validated: 524293
EndChar

StartChar: uni0095
Encoding: 149 149 24
Width: 512
Flags: HW
LayerCount: 2
Fore
SplineSet
118 291.799804688 m 4
 118 286.049804688 120.299804688 276.850585938 122.599609375 264.200195312 c 5
 115.700195312 258.450195312 l 6
 100.75 246.950195312 89.25 230.850585938 81.2001953125 212.450195312 c 132
 72 194.049804688 67.400390625 173.350585938 67.400390625 152.650390625 c 4
 67.400390625 134.25 69.7001953125 117 76.599609375 100.900390625 c 132
 83.5 84.7998046875 91.5498046875 71 103.049804688 59.5 c 132
 113.400390625 48 126.049804688 38.7998046875 141 31.900390625 c 132
 155.950195312 25 170.900390625 20.400390625 187 20.400390625 c 6
 377.900390625 22.7001953125 l 6
 396.299804688 22.7001953125 412.400390625 30.75 425.049804688 48 c 132
 438.849609375 64.1005859375 444.599609375 85.9501953125 444.599609375 108.950195312 c 4
 444.599609375 123.900390625 441.150390625 137.700195312 435.400390625 150.350585938 c 132
 429.650390625 163 421.599609375 173.350585938 411.25 181.400390625 c 6
 400.900390625 189.450195312 l 5
 407.799804688 200.950195312 l 6
 415.849609375 214.75 419.299804688 229.700195312 419.299804688 245.799804688 c 4
 419.299804688 261.900390625 415.849609375 276.850585938 408.950195312 289.5 c 132
 402.049804688 302.150390625 394 312.5 382.5 319.400390625 c 4
 371 326.299804688 359.5 330.900390625 346.849609375 330.900390625 c 4
 336.5 330.900390625 326.150390625 327.450195312 315.799804688 321.700195312 c 6
 302 313.650390625 l 5
 295.099609375 328.600585938 l 6
 288.200195312 345.850585938 277.849609375 359.650390625 262.900390625 370 c 132
 247.950195312 380.350585938 230.700195312 387.25 212.299804688 387.25 c 6
 210 387.25 l 6
 193.900390625 387.25 177.799804688 382.650390625 164 374.600585938 c 132
 150.200195312 365.400390625 138.700195312 355.049804688 130.650390625 340.100585938 c 132
 122.599609375 325.150390625 118 309.049804688 118 291.799804688 c 4
210 416 m 6
 231.849609375 416 253.700195312 411.400390625 272.099609375 399.900390625 c 132
 290.5 388.400390625 305.450195312 372.299804688 315.799804688 353.900390625 c 5
 326.150390625 358.5 336.5 360.799804688 346.849609375 360.799804688 c 4
 365.25 360.799804688 382.5 355.049804688 398.599609375 344.700195312 c 4
 413.549804688 334.350585938 426.200195312 320.549804688 435.400390625 303.299804688 c 132
 444.599609375 286.049804688 449.200195312 266.5 449.200195312 245.799804688 c 4
 449.200195312 228.549804688 445.75 213.600585938 438.849609375 197.5 c 5
 450.349609375 186 458.400390625 173.350585938 465.299804688 158.400390625 c 132
 472.200195312 142.299804688 474.5 126.200195312 474.5 108.950195312 c 4
 474.5 89.400390625 471.049804688 71 463 53.75 c 132
 454.950195312 36.5 442.299804688 23.8505859375 428.5 12.3505859375 c 132
 413.549804688 2 398.599609375 -4.8994140625 380.200195312 -7.2001953125 c 6
 380.200195312 -7.2001953125 l 5
 366.400390625 -7.2001953125 344.549804688 -7.2001953125 319.25 -7.2001953125 c 132
 292.799804688 -7.2001953125 268.650390625 -8.349609375 247.950195312 -8.349609375 c 132
 226.099609375 -8.349609375 205.400390625 -8.349609375 187 -8.349609375 c 4
 166.299804688 -8.349609375 147.900390625 -4.8994140625 129.5 4.2998046875 c 132
 111.099609375 13.5 95 25 81.2001953125 38.7998046875 c 132
 67.400390625 53.75 58.2001953125 71 50.150390625 90.5498046875 c 132
 42.099609375 110.100585938 37.5 130.799804688 37.5 152.650390625 c 4
 37.5 176.799804688 42.099609375 199.799804688 51.2998046875 220.5 c 132
 60.5 241.200195312 74.2998046875 260.75 90.400390625 275.700195312 c 5
 90.400390625 281.450195312 88.099609375 287.200195312 88.099609375 291.799804688 c 4
 88.099609375 312.5 93.849609375 330.900390625 103.049804688 349.299804688 c 132
 112.25 367.700195312 124.900390625 382.650390625 141 394.150390625 c 132
 157.099609375 405.650390625 175.5 413.700195312 196.200195312 416 c 5
 196.200195312 416 l 5
 210 416 l 6
327.299804688 80.2001953125 m 5
 254.849609375 80.2001953125 l 5
 182.400390625 80.2001953125 l 5
 219.200195312 137.700195312 l 5
 254.849609375 195.200195312 l 5
 291.650390625 137.700195312 l 5
 327.299804688 80.2001953125 l 5
127.200195312 211.299804688 m 5
 356.049804688 267.650390625 l 5
 366.400390625 225.100585938 l 5
 137.549804688 169.900390625 l 5
 127.200195312 211.299804688 l 5
EndSplineSet
Validated: 524293
EndChar

StartChar: uni0096
Encoding: 150 150 25
Width: 512
Flags: HW
LayerCount: 2
Fore
SplineSet
311.775390625 422 m 5
 364.674804688 422 l 5
 364.674804688 324.25 l 5
 380.775390625 318.5 394.575195312 309.299804688 404.924804688 294.350585938 c 132
 415.275390625 279.400390625 421.025390625 263.299804688 421.025390625 244.900390625 c 132
 421.025390625 226.5 415.275390625 209.25 404.924804688 195.450195312 c 132
 394.575195312 180.5 380.775390625 171.299804688 364.674804688 165.549804688 c 5
 364.674804688 -1.2001953125 l 5
 311.775390625 -1.2001953125 l 5
 311.775390625 164.400390625 l 5
 294.525390625 170.150390625 280.724609375 180.5 269.224609375 195.450195312 c 132
 257.724609375 210.400390625 253.125 226.5 253.125 244.900390625 c 132
 253.125 263.299804688 257.724609375 279.400390625 269.224609375 294.350585938 c 132
 280.724609375 309.299804688 294.525390625 319.650390625 311.775390625 325.400390625 c 5
 311.775390625 422 l 5
337.075195312 285.150390625 m 132
 325.575195312 285.150390625 316.375 281.700195312 308.325195312 273.650390625 c 132
 300.275390625 265.600585938 296.825195312 256.400390625 296.825195312 244.900390625 c 132
 296.825195312 233.400390625 300.275390625 224.200195312 308.325195312 216.150390625 c 132
 316.375 209.25 325.575195312 204.650390625 337.075195312 204.650390625 c 132
 348.575195312 204.650390625 357.775390625 209.25 365.825195312 216.150390625 c 132
 372.724609375 224.200195312 377.325195312 233.400390625 377.325195312 244.900390625 c 132
 377.325195312 256.400390625 372.724609375 265.600585938 365.825195312 273.650390625 c 132
 357.775390625 281.700195312 348.575195312 285.150390625 337.075195312 285.150390625 c 132
419.875 378.299804688 m 5
 462.424804688 372.549804688 l 5
 462.424804688 371.400390625 462.424804688 370.25 462.424804688 367.950195312 c 132
 462.424804688 365.650390625 461.275390625 362.200195312 458.974609375 355.299804688 c 132
 457.825195312 348.400390625 455.525390625 342.650390625 453.224609375 335.75 c 132
 450.924804688 328.850585938 448.625 321.950195312 444.025390625 312.75 c 132
 440.575195312 303.549804688 435.974609375 296.650390625 431.375 289.75 c 5
 424.474609375 303.549804688 414.125 316.200195312 401.474609375 325.400390625 c 5
 403.775390625 330 406.075195312 335.75 408.375 341.5 c 132
 410.674804688 347.25 412.974609375 351.850585938 414.125 356.450195312 c 132
 415.275390625 361.049804688 416.424804688 364.5 417.575195312 367.950195312 c 132
 418.724609375 371.400390625 419.875 373.700195312 419.875 376 c 6
 419.875 378.299804688 l 5
181.825195312 302.400390625 m 4
 199.075195312 302.400390625 218.625 295.5 240.474609375 284 c 4
 240.474609375 282.850585938 l 132
 240.474609375 282.850585938 l 4
 235.875 270.200195312 234.724609375 256.400390625 234.724609375 242.600585938 c 4
 234.724609375 242.600585938 234.724609375 242.600585938 234.724609375 241.450195312 c 132
 234.724609375 240.299804688 234.724609375 239.150390625 234.724609375 239.150390625 c 5
 233.575195312 239.150390625 232.424804688 240.299804688 230.125 241.450195312 c 132
 227.825195312 242.600585938 227.825195312 243.75 226.674804688 243.75 c 132
 225.525390625 243.75 224.375 244.900390625 222.075195312 246.049804688 c 4
 216.325195312 249.5 211.724609375 251.799804688 209.424804688 252.950195312 c 132
 205.974609375 254.100585938 201.375 256.400390625 196.775390625 258.700195312 c 132
 192.174804688 259.850585938 187.575195312 261 184.125 261 c 132
 180.674804688 261 177.224609375 259.850585938 172.625 258.700195312 c 132
 168.025390625 257.549804688 161.125 255.25 156.525390625 252.950195312 c 4
 145.025390625 247.200195312 135.825195312 233.400390625 126.625 211.549804688 c 132
 117.424804688 189.700195312 110.525390625 164.400390625 104.775390625 136.799804688 c 4
 102.474609375 121.850585938 99.025390625 102.299804688 96.724609375 79.2998046875 c 132
 94.4248046875 56.2998046875 93.275390625 36.75 92.125 20.650390625 c 6
 89.8251953125 -2.349609375 l 5
 49.5751953125 -0.0498046875 l 5
 54.1748046875 59.75 59.9248046875 110.350585938 66.8251953125 147.150390625 c 4
 69.125 159.799804688 71.4248046875 171.299804688 73.724609375 181.650390625 c 132
 76.025390625 192 79.474609375 202.350585938 84.0751953125 215 c 132
 88.6748046875 226.5 93.275390625 238 97.875 247.200195312 c 132
 102.474609375 256.400390625 108.224609375 265.600585938 115.125 273.650390625 c 132
 122.025390625 281.700195312 130.075195312 287.450195312 139.275390625 292.049804688 c 4
 151.924804688 298.950195312 164.575195312 302.400390625 178.375 302.400390625 c 4
 179.525390625 302.400390625 180.674804688 302.400390625 181.825195312 302.400390625 c 4
EndSplineSet
Validated: 524293
EndChar
